<svg width="237" height="193" viewBox="0 0 237 193" fill="none" xmlns="http://www.w3.org/2000/svg">
<g clip-path="url(#clip0)">
<path d="M138.726 195.638L120.526 236.511L98.8494 197.896L138.726 195.638Z" fill="#CDD6E0"/>
<path d="M181.253 186.117L170.13 229.167L141.854 194.967L181.253 186.117Z" fill="#FF7058"/>
<path d="M184.193 185.084L217.644 214.1L221.133 169.67L184.193 185.084Z" fill="#CDD6E0"/>
<path d="M221.534 169.461L261.747 188.605L253.303 145.044L221.534 169.461Z" fill="#FF7058"/>
<path d="M98.642 197.5L70.3404 232.363L59.5699 189.054L98.642 197.5Z" fill="#FF7058"/>
<path d="M142.444 83.5098L186.189 91.4871L166.843 51.6526L142.444 83.5098Z" fill="#84DBFF"/>
<path d="M110.172 112.643L152.062 128.431L140.108 85.6956L110.172 112.643Z" fill="#FFD15C"/>
<path d="M107.836 114.829L112.579 158.856L74.1003 136.372L107.836 114.829Z" fill="#84DBFF"/>
<path d="M73.5111 136.221L66.2712 180.132L35.5211 148.741L73.5111 136.221Z" fill="#FFD15C"/>
<path d="M166.635 51.2555L211.433 47.9389L182.199 14.7444L166.635 51.2555Z" fill="#FFD15C"/>
<g opacity="0.8">
<path opacity="0.8" d="M107.937 115.556C96.697 123.959 85.2367 131.053 74.2293 136.442L79.2241 139.34C88.8432 134.402 98.7385 128.217 108.545 120.977L107.937 115.556Z" fill="#66A8C4"/>
<g opacity="0.8">
<path opacity="0.8" d="M140.339 86.4927C135.91 91.2419 131.168 95.9252 126.223 100.485C121.312 104.935 116.307 109.114 111.205 113.021L116.296 114.95C120.705 111.405 125.057 107.66 129.387 103.697C133.699 99.7897 137.863 95.7755 141.788 91.7488L140.339 86.4927Z" fill="#C4A046"/>
<path opacity="0.8" d="M73.3917 136.88C60.2513 143.247 47.7751 147.246 36.9817 148.253L35.4843 148.76L39.4864 152.865C49.4869 151.584 60.7041 148.105 72.4086 142.72L73.3917 136.88Z" fill="#C4A046"/>
</g>
<path opacity="0.8" d="M166.975 51.9042C160.57 62.3691 152.427 73.1463 143.014 83.6239L148.515 84.6498C156.663 75.5683 163.726 66.2739 169.506 57.0997L166.975 51.9042Z" fill="#66A8C4"/>
<path opacity="0.8" d="M186.039 19.0721L182.254 14.7617C180.462 25.7073 175.261 38.2061 167.442 51.201L173.325 50.7414C179.575 39.7145 183.939 28.9849 186.039 19.0721Z" fill="#C4A046"/>
</g>
<g opacity="0.8">
<path opacity="0.8" d="M163.127 196.789C168.743 195.551 174.246 194.097 179.6 192.537L180.835 187.713C174.862 189.598 168.72 191.248 162.483 192.719C155.879 194.107 149.308 195.293 142.807 196.167L145.999 200.054C151.656 199.161 157.384 198.048 163.127 196.789Z" fill="#C45643"/>
<path opacity="0.8" d="M254.491 151.218L253.404 145.681C246.423 154.244 235.787 162.56 222.588 169.967L227.409 172.267C238.511 165.818 247.714 158.664 254.491 151.218Z" fill="#C45643"/>
<path opacity="0.8" d="M94.7819 202.273L98.245 197.983C83.1849 196.952 69.9875 193.982 59.9381 189.137L59.5699 189.054L60.9304 194.494C70.3628 198.515 81.8858 201.121 94.7819 202.273Z" fill="#C45643"/>
</g>
<path d="M126.646 100.585C93.2032 131.295 55.5023 150.046 28.8813 150.239C27.3197 150.092 26.3156 149.148 26.5137 147.575C26.3113 146.212 27.634 145.015 28.8502 145.389C54.0982 145.408 91.2099 126.507 123.482 97.3735C155.546 67.8434 177.735 32.7347 179.933 7.57393C180.095 6.02027 181.261 5.41073 182.27 5.38783C183.831 5.53553 184.435 6.68905 184.449 7.69175C182.277 34.7669 160.259 70.2912 126.646 100.585Z" fill="#F2F2F2"/>
<path d="M161.971 192.803C206.272 182.859 243.182 162.594 258.529 140.842C259.487 139.836 259.096 138.112 257.88 137.738C256.876 136.794 255.139 137.197 254.752 138.409C240.363 159.156 203.666 178.85 161.327 188.732C118.592 197.857 77.0623 196.067 54.9922 183.138C53.6238 182.385 52.4582 182.994 51.8637 183.81C51.2695 184.625 51.6973 186.33 52.5125 186.914C75.9693 200.542 117.706 202.727 161.971 192.803Z" fill="#F2F2F2"/>
</g>
<defs>
<clipPath id="clip0">
<rect width="210.53" height="106.825" fill="white" transform="translate(0.0537109 97.9932) rotate(-27.6058)"/>
</clipPath>
</defs>
</svg>
