<svg width="240" height="240" viewBox="0 0 240 240" fill="none" xmlns="http://www.w3.org/2000/svg">
<g clip-path="url(#clip0)">
<path d="M83.0915 152.951L45.2647 167.425L56.426 128.657L83.0915 152.951Z" fill="#CDD6E0"/>
<path d="M116.109 174.297L81.3553 194.735L85.5015 154.54L116.109 174.297Z" fill="#FF7058"/>
<path d="M118.633 175.532L121.097 215.743L151.914 189.49L118.633 175.532Z" fill="#CDD6E0"/>
<path d="M152.302 189.615L165.398 227.857L188.11 194.459L152.302 189.615Z" fill="#FF7058"/>
<path d="M56.5502 128.268L16.2074 132.364L37.2865 97.6258L56.5502 128.268Z" fill="#FF7058"/>
<path d="M157.647 83.4133L180.166 116.771L193.587 78.726L157.647 83.4133Z" fill="#84DBFF"/>
<path d="M118.483 81.2708L134.801 118.443L154.762 83.3079L118.483 81.2708Z" fill="#FFD15C"/>
<path d="M115.598 81.1647L90.2469 112.473L80.3972 73.2074L115.598 81.1647Z" fill="#84DBFF"/>
<path d="M80.1221 72.7298L47.2684 96.2278L48.0413 56.2373L80.1221 72.7298Z" fill="#FFD15C"/>
<path d="M193.711 78.3372L224.169 105.129L227.062 64.9601L193.711 78.3372Z" fill="#FFD15C"/>
<g opacity="0.8">
<path opacity="0.8" d="M115.195 81.6965C102.677 79.831 90.8631 76.9841 80.4337 73.3355L81.7258 78.419C90.9871 81.4606 101.226 83.8808 112.088 85.567L115.195 81.6965Z" fill="#66A8C4"/>
<g opacity="0.8">
<path opacity="0.8" d="M154.395 83.9681C148.537 84.1558 142.523 84.0992 136.46 83.8322C130.49 83.5171 124.634 82.9666 118.893 82.1798L120.87 86.7039C125.94 87.2759 131.102 87.6825 136.392 87.9354C141.634 88.2123 146.852 88.3252 151.927 88.2758L154.395 83.9681Z" fill="#C4A046"/>
<path opacity="0.8" d="M79.622 73.0758C67.2148 68.6771 56.7519 63.1884 49.2794 56.8667L48.0059 56.2256L47.8928 61.4428C55.0405 67.0768 64.3722 72.0866 75.2403 76.1874L79.622 73.0758Z" fill="#C4A046"/>
</g>
<path opacity="0.8" d="M193.508 78.9724C182.72 81.5519 170.632 83.2094 157.934 83.8546L160.75 88.0637C171.75 87.4977 182.201 86.0942 191.762 83.9397L193.508 78.9724Z" fill="#66A8C4"/>
<path opacity="0.8" d="M226.703 70.216L227.086 65.0073C218.904 70.8727 207.567 75.5336 194.256 78.8233L198.272 82.3265C209.324 79.2866 218.992 75.22 226.703 70.216Z" fill="#C4A046"/>
</g>
<g opacity="0.8">
<path opacity="0.8" d="M97.7771 169.443C102.125 172.274 106.54 174.893 110.93 177.349L114.817 175.051C109.827 172.404 104.881 169.498 99.991 166.415C94.922 163.042 90.004 159.561 85.3303 155.925L84.8461 160.479C88.9973 163.558 93.3352 166.542 97.7771 169.443Z" fill="#C45643"/>
<path opacity="0.8" d="M184.885 199.187L187.764 194.933C177.837 195.92 165.757 194.389 152.642 190.62L154.209 195.208C165.381 198.237 175.806 199.589 184.885 199.187Z" fill="#C45643"/>
<path opacity="0.8" d="M51.036 128.839L55.9881 128.322C47.1306 117.938 40.6992 107.513 37.4658 97.917L37.2864 97.6261L34.6433 101.995C38.0178 110.663 43.6246 119.774 51.036 128.839Z" fill="#C45643"/>
</g>
<path d="M136.663 84.1697C95.7439 82.2824 59.8339 69.9736 42.8787 52.9121C41.9865 51.8092 41.9596 50.5555 43.0974 49.6744C43.8472 48.6693 45.4541 48.7553 45.9824 49.7803C61.9324 66.092 97.5669 77.9238 136.731 80.0665C176.018 81.8206 212.655 73.6204 230.247 58.8976C231.35 58.0054 232.479 58.3668 233.132 59.0034C234.024 60.1063 233.663 61.2358 233.026 61.8884C214.218 77.8564 177.422 86.4338 136.663 84.1697Z" fill="#F2F2F2"/>
<path d="M99.6132 166.138C134.025 188.358 170.41 199.184 194.12 195.137C195.374 195.11 196.237 193.752 195.709 192.726C195.682 191.473 194.324 190.61 193.298 191.138C170.842 195.158 134.959 184.103 101.827 163.11C68.9334 141.376 43.8295 113.418 38.2018 90.8752C37.8218 89.5085 36.6923 89.147 35.7914 89.2865C34.8903 89.4263 34.0632 90.7959 34.2026 91.6969C40.2571 115.583 65.2366 143.929 99.6132 166.138Z" fill="#F2F2F2"/>
</g>
<defs>
<clipPath id="clip0">
<rect width="189.802" height="189.673" fill="white" transform="translate(58.2969 0.782715) rotate(17.7456)"/>
</clipPath>
</defs>
</svg>
